<?xml version="1.0" encoding="utf-8"?>
<!-- Generator: Adobe Illustrator 15.0.0, SVG Export Plug-In . SVG Version: 6.00 Build 0)  -->
<!DOCTYPE svg PUBLIC "-//W3C//DTD SVG 1.1//EN" "http://www.w3.org/Graphics/SVG/1.1/DTD/svg11.dtd">
<svg version="1.1" id="Layer_1" xmlns="http://www.w3.org/2000/svg" xmlns:xlink="http://www.w3.org/1999/xlink" x="0px" y="0px"
	 width="180px" height="180px" viewBox="0 0 180 180" enable-background="new 0 0 180 180" xml:space="preserve">
<g id="surface1">
	<path fill="#FFFFFF" stroke="#795548" stroke-width="2" stroke-miterlimit="10" d="M106.666,4.583c0,0-12.5,12.923-12.5,37.5"/>
	<path fill="#9C27B0" d="M152.5,96.25c0,34.586-27.914,79.166-62.5,79.166s-62.5-44.58-62.5-79.166
		c0-40.836,18.327-70.833,66.666-54.167C133.326,24.994,152.5,61.664,152.5,96.25z"/>
	<path fill="#4A148C" d="M127.076,107.09c0.848-2.084,0.848-4.59,0.848-6.674l0.83-6.674c0-2.082,0-4.572,0-7.08
		c0-2.49,0-4.573-0.424-6.657c-0.406-2.083-0.83-4.59-1.254-6.673c-0.406-2.083-1.236-4.167-1.66-6.25
		c-1.252-4.167-2.912-7.91-4.59-12.077c-2.082-3.336-3.742-7.096-5.826-10.01c-1.66-2.49-3.336-4.997-5.42-7.08
		c-4.996,0.423-9.994,1.66-15.836,4.167c21.68,16.667,26.252,49.578,26.252,51.66v6.25c0,2.084,0,4.168-0.406,6.25
		c-0.424,2.084-0.424,4.168-0.846,6.25c0,2.084-0.408,4.168-0.83,5.844c-0.83,3.744-1.66,7.504-2.914,11.246
		c-1.254,3.338-2.506,6.674-3.744,9.588c-0.422,1.66-1.252,2.912-1.676,4.166c-0.83,1.254-1.254,2.49-2.084,3.744
		c-1.252,2.506-2.082,4.59-2.912,6.25c-1.254,3.336-2.084,5.42-2.084,5.42s1.254-1.66,3.336-4.998
		c1.254-1.676,2.49-3.336,3.744-5.842c0.83-1.238,1.676-2.49,2.506-3.32c0.83-1.254,1.254-2.508,2.084-4.168
		c1.66-2.93,3.336-6.25,4.996-9.586s2.914-7.504,4.168-11.246c0.83-2.084,1.252-4.168,1.66-6.25
		C125.84,111.256,126.67,109.172,127.076,107.09z"/>
	<path fill="#4CAF50" d="M94.166,42.083c0,0-5.419-52.083-58.333-33.333C41.66,62.917,94.166,42.083,94.166,42.083z"/>
</g>
</svg>
